<svg xmlns="http://www.w3.org/2000/svg" xmlns:xlink="http://www.w3.org/1999/xlink" version="1.2" width="210.00mm" height="297.00mm" viewBox="0 0 119.5016 169.0094">
<!-- Page: 1/1 -->
<text transform="translate(5.6906, 2.8453)" font-family="Century Schoolbook L" font-size="2.2001" text-anchor="start" fill="currentColor">
<tspan>
 </tspan>
</text>
<text transform="translate(51.2150, 6.4402)" font-family="Century Schoolbook L" font-weight="bold" font-size="3.4927" text-anchor="start" fill="currentColor">
<tspan>
Tremolos</tspan>
</text>
<rect transform="translate(28.9092, 10.7845)" x="0.0000" y="-2.0000" width="0.1900" height="4.0000" ry="0.0000" fill="currentColor"/>
<rect transform="translate(86.5745, 10.7845)" x="0.0000" y="-2.0000" width="0.1900" height="4.0000" ry="0.0000" fill="currentColor"/>
<rect transform="translate(53.4133, 10.7845)" x="0.0000" y="-2.0000" width="0.1900" height="4.0000" ry="0.0000" fill="currentColor"/>
<rect transform="translate(63.2937, 10.7845)" x="0.0000" y="-2.0000" width="0.1900" height="4.0000" ry="0.0000" fill="currentColor"/>
<rect transform="translate(37.0772, 10.7845)" x="0.0000" y="-2.0000" width="0.1900" height="4.0000" ry="0.0000" fill="currentColor"/>
<rect transform="translate(73.1911, 10.7845)" x="0.0000" y="-2.0000" width="0.1900" height="4.0000" ry="0.0000" fill="currentColor"/>
<rect transform="translate(5.6906, 13.7845)" x="16.6456" y="-0.1000" width="2.9700" height="0.2000" ry="0.1000" fill="currentColor"/>
<rect transform="translate(5.6906, 13.7845)" x="48.4653" y="-0.1000" width="2.0850" height="0.2000" ry="0.1000" fill="currentColor"/>
<rect transform="translate(5.6906, 13.7845)" x="68.2615" y="-0.1000" width="1.9743" height="0.2000" ry="0.1000" fill="currentColor"/>
<rect transform="translate(5.6906, 13.7845)" x="81.6449" y="-0.1000" width="1.9743" height="0.2000" ry="0.1000" fill="currentColor"/>
<rect transform="translate(5.6906, 13.7845)" x="89.8596" y="-0.1000" width="1.8952" height="0.2000" ry="0.1000" fill="currentColor"/>
<rect transform="translate(5.6906, 13.7845)" x="97.2887" y="-0.1000" width="1.9743" height="0.2000" ry="0.1000" fill="currentColor"/>
<line transform="translate(14.2264, 12.7845)" stroke-linejoin="round" stroke-linecap="round" stroke-width="0.1000" stroke="currentColor" x1="0.0500" y1="-0.0000" x2="98.8806" y2="-0.0000"/>
<line transform="translate(14.2264, 11.7845)" stroke-linejoin="round" stroke-linecap="round" stroke-width="0.1000" stroke="currentColor" x1="0.0500" y1="-0.0000" x2="98.8806" y2="-0.0000"/>
<line transform="translate(14.2264, 10.7845)" stroke-linejoin="round" stroke-linecap="round" stroke-width="0.1000" stroke="currentColor" x1="0.0500" y1="-0.0000" x2="98.8806" y2="-0.0000"/>
<line transform="translate(14.2264, 9.7845)" stroke-linejoin="round" stroke-linecap="round" stroke-width="0.1000" stroke="currentColor" x1="0.0500" y1="-0.0000" x2="98.8806" y2="-0.0000"/>
<line transform="translate(14.2264, 8.7845)" stroke-linejoin="round" stroke-linecap="round" stroke-width="0.1000" stroke="currentColor" x1="0.0500" y1="-0.0000" x2="98.8806" y2="-0.0000"/>
<rect transform="translate(45.2453, 10.7845)" x="0.0000" y="-2.0000" width="0.1900" height="4.0000" ry="0.0000" fill="currentColor"/>
<a style="color:inherit;" xlink:href="textedit:///media/sf_Philomelos/PUMTS.git/partwise/elements/tremolo/tremolo_xml--musicxml2ly-2.19.15.ly:26:4:5">
<path transform="translate(87.6645, 13.7845) scale(0.0040, -0.0040)" d="M220 138c56 0 109 -29 109 -91c0 -72 -56 -121 -103 -149c-36 -21 -76 -36 -117 -36c-56 0 -109 29 -109 91c0 72 56 121 103 149c36 21 76 36 117 36z" fill="currentColor"/>
</a>
<rect transform="translate(88.9157, 10.7845)" x="-0.0650" y="-1.0201" width="0.1300" height="3.8323" ry="0.0400" fill="currentColor"/>
<a style="color:inherit;" xlink:href="textedit:///media/sf_Philomelos/PUMTS.git/partwise/elements/tremolo/tremolo_xml--musicxml2ly-2.19.15.ly:26:23:24">
<polygon transform="translate(92.7475, 10.2040)" stroke-linejoin="round" stroke-linecap="round" stroke-width="0.0800" fill="currentColor" stroke="currentColor" points="-0.0982 -0.1787 0.7792 -0.4552 0.8994 -0.0737 0.0219 0.2028"/>
<polygon transform="translate(92.7475, 9.3940)" stroke-linejoin="round" stroke-linecap="round" stroke-width="0.0800" fill="currentColor" stroke="currentColor" points="-0.0982 -0.1787 0.7792 -0.4552 0.8994 -0.0737 0.0219 0.2028"/>
</a>
<a style="color:inherit;" xlink:href="textedit:///media/sf_Philomelos/PUMTS.git/partwise/elements/tremolo/tremolo_xml--musicxml2ly-2.19.15.ly:26:11:12">
<path transform="translate(89.7807, 13.2845) scale(0.0040, -0.0040)" d="M220 138c56 0 109 -29 109 -91c0 -72 -56 -121 -103 -149c-36 -21 -76 -36 -117 -36c-56 0 -109 29 -109 91c0 72 56 121 103 149c36 21 76 36 117 36z" fill="currentColor"/>
</a>
<rect transform="translate(91.0319, 10.7845)" x="-0.0650" y="-1.6734" width="0.1300" height="3.9855" ry="0.0400" fill="currentColor"/>
<a style="color:inherit;" xlink:href="textedit:///media/sf_Philomelos/PUMTS.git/partwise/elements/tremolo/tremolo_xml--musicxml2ly-2.19.15.ly:26:15:16">
<polygon transform="translate(90.6313, 10.0473)" stroke-linejoin="round" stroke-linecap="round" stroke-width="0.0800" fill="currentColor" stroke="currentColor" points="-0.0982 -0.1787 0.7792 -0.4552 0.8994 -0.0737 0.0219 0.2028"/>
</a>
<a style="color:inherit;" xlink:href="textedit:///media/sf_Philomelos/PUMTS.git/partwise/elements/tremolo/tremolo_xml--musicxml2ly-2.19.15.ly:26:19:20">
<path transform="translate(91.8969, 12.7845) scale(0.0040, -0.0040)" d="M220 138c56 0 109 -29 109 -91c0 -72 -56 -121 -103 -149c-36 -21 -76 -36 -117 -36c-56 0 -109 29 -109 91c0 72 56 121 103 149c36 21 76 36 117 36z" fill="currentColor"/>
</a>
<rect transform="translate(93.1481, 10.7845)" x="-0.0650" y="-2.3266" width="0.1300" height="4.1388" ry="0.0400" fill="currentColor"/>
<rect transform="translate(75.5322, 10.7845)" x="-0.0650" y="-0.5000" width="0.1300" height="3.3122" ry="0.0400" fill="currentColor"/>
<a style="color:inherit;" xlink:href="textedit:///media/sf_Philomelos/PUMTS.git/partwise/elements/tremolo/tremolo_xml--musicxml2ly-2.19.15.ly:24:8:9">
<polygon transform="translate(74.7822, 11.2820)" stroke-linejoin="round" stroke-linecap="round" stroke-width="0.0800" fill="currentColor" stroke="currentColor" points="1.4600 -0.5750 1.4600 -0.1750 0.0400 0.2000 0.0400 -0.2000"/>
</a>
<a style="color:inherit;" xlink:href="textedit:///media/sf_Philomelos/PUMTS.git/partwise/elements/tremolo/tremolo_xml--musicxml2ly-2.19.15.ly:24:11:12">
<path transform="translate(77.2953, 13.2845) scale(0.0040, -0.0040)" d="M220 138c56 0 109 -29 109 -91c0 -72 -56 -121 -103 -149c-36 -21 -76 -36 -117 -36c-56 0 -109 29 -109 91c0 72 56 121 103 149c36 21 76 36 117 36z" fill="currentColor"/>
</a>
<rect transform="translate(78.5465, 10.7845)" x="-0.0650" y="-1.0000" width="0.1300" height="3.3122" ry="0.0400" fill="currentColor"/>
<a style="color:inherit;" xlink:href="textedit:///media/sf_Philomelos/PUMTS.git/partwise/elements/tremolo/tremolo_xml--musicxml2ly-2.19.15.ly:24:15:16">
<polygon transform="translate(77.7965, 11.5920)" stroke-linejoin="round" stroke-linecap="round" stroke-width="0.0800" fill="currentColor" stroke="currentColor" points="1.4600 -0.5750 1.4600 -0.1750 0.0400 0.2000 0.0400 -0.2000"/>
<polygon transform="translate(77.7965, 10.7820)" stroke-linejoin="round" stroke-linecap="round" stroke-width="0.0800" fill="currentColor" stroke="currentColor" points="1.4600 -0.5750 1.4600 -0.1750 0.0400 0.2000 0.0400 -0.2000"/>
</a>
<a style="color:inherit;" xlink:href="textedit:///media/sf_Philomelos/PUMTS.git/partwise/elements/tremolo/tremolo_xml--musicxml2ly-2.19.15.ly:24:19:20">
<path transform="translate(80.3095, 12.7845) scale(0.0040, -0.0040)" d="M220 138c56 0 109 -29 109 -91c0 -72 -56 -121 -103 -149c-36 -21 -76 -36 -117 -36c-56 0 -109 29 -109 91c0 72 56 121 103 149c36 21 76 36 117 36z" fill="currentColor"/>
</a>
<rect transform="translate(81.5607, 10.7845)" x="-0.0650" y="-1.6250" width="0.1300" height="3.4372" ry="0.0400" fill="currentColor"/>
<a style="color:inherit;" xlink:href="textedit:///media/sf_Philomelos/PUMTS.git/partwise/elements/tremolo/tremolo_xml--musicxml2ly-2.19.15.ly:24:23:24">
<polygon transform="translate(80.8107, 11.7770)" stroke-linejoin="round" stroke-linecap="round" stroke-width="0.0800" fill="currentColor" stroke="currentColor" points="1.4600 -0.5750 1.4600 -0.1750 0.0400 0.2000 0.0400 -0.2000"/>
<polygon transform="translate(80.8107, 10.9670)" stroke-linejoin="round" stroke-linecap="round" stroke-width="0.0800" fill="currentColor" stroke="currentColor" points="1.4600 -0.5750 1.4600 -0.1750 0.0400 0.2000 0.0400 -0.2000"/>
<polygon transform="translate(80.8107, 10.1570)" stroke-linejoin="round" stroke-linecap="round" stroke-width="0.0800" fill="currentColor" stroke="currentColor" points="1.4600 -0.5750 1.4600 -0.1750 0.0400 0.2000 0.0400 -0.2000"/>
</a>
<a style="color:inherit;" xlink:href="textedit:///media/sf_Philomelos/PUMTS.git/partwise/elements/tremolo/tremolo_xml--musicxml2ly-2.19.15.ly:24:27:28">
<path transform="translate(83.3237, 12.2845) scale(0.0040, -0.0040)" d="M220 138c56 0 109 -29 109 -91c0 -72 -56 -121 -103 -149c-36 -21 -76 -36 -117 -36c-56 0 -109 29 -109 91c0 72 56 121 103 149c36 21 76 36 117 36z" fill="currentColor"/>
</a>
<rect transform="translate(84.5749, 10.7845)" x="-0.0650" y="-2.9350" width="0.1300" height="4.2472" ry="0.0400" fill="currentColor"/>
<a style="color:inherit;" xlink:href="textedit:///media/sf_Philomelos/PUMTS.git/partwise/elements/tremolo/tremolo_xml--musicxml2ly-2.19.15.ly:24:31:32">
<polygon transform="translate(83.8249, 11.2770)" stroke-linejoin="round" stroke-linecap="round" stroke-width="0.0800" fill="currentColor" stroke="currentColor" points="1.4600 -0.5750 1.4600 -0.1750 0.0400 0.2000 0.0400 -0.2000"/>
<polygon transform="translate(83.8249, 10.4670)" stroke-linejoin="round" stroke-linecap="round" stroke-width="0.0800" fill="currentColor" stroke="currentColor" points="1.4600 -0.5750 1.4600 -0.1750 0.0400 0.2000 0.0400 -0.2000"/>
<polygon transform="translate(83.8249, 9.6570)" stroke-linejoin="round" stroke-linecap="round" stroke-width="0.0800" fill="currentColor" stroke="currentColor" points="1.4600 -0.5750 1.4600 -0.1750 0.0400 0.2000 0.0400 -0.2000"/>
<polygon transform="translate(83.8249, 8.8470)" stroke-linejoin="round" stroke-linecap="round" stroke-width="0.0800" fill="currentColor" stroke="currentColor" points="1.4600 -0.5750 1.4600 -0.1750 0.0400 0.2000 0.0400 -0.2000"/>
</a>
<a style="color:inherit;" xlink:href="textedit:///media/sf_Philomelos/PUMTS.git/partwise/elements/tremolo/tremolo_xml--musicxml2ly-2.19.15.ly:28:35:36">
<polygon transform="translate(102.3634, 10.5534)" stroke-linejoin="round" stroke-linecap="round" stroke-width="0.0800" fill="currentColor" stroke="currentColor" points="-0.0993 -0.1782 0.7766 -0.4596 0.8990 -0.0788 0.0231 0.2026"/>
<polygon transform="translate(102.3634, 9.7434)" stroke-linejoin="round" stroke-linecap="round" stroke-width="0.0800" fill="currentColor" stroke="currentColor" points="-0.0993 -0.1782 0.7766 -0.4596 0.8990 -0.0788 0.0231 0.2026"/>
</a>
<a style="color:inherit;" xlink:href="textedit:///media/sf_Philomelos/PUMTS.git/partwise/elements/tremolo/tremolo_xml--musicxml2ly-2.19.15.ly:31:4:5">
<path transform="translate(103.3082, 13.7845) scale(0.0040, -0.0040)" d="M220 138c56 0 109 -29 109 -91c0 -72 -56 -121 -103 -149c-36 -21 -76 -36 -117 -36c-56 0 -109 29 -109 91c0 72 56 121 103 149c36 21 76 36 117 36z" fill="currentColor"/>
</a>
<rect transform="translate(104.5594, 10.7845)" x="-0.0650" y="-2.0000" width="0.1300" height="4.8122" ry="0.0400" fill="currentColor"/>
<path transform="translate(104.6244, 8.8245) scale(0.0040, -0.0040)" d="M0 -213v-12c0 -112 85 -197 145 -289c3 13 5 27 5 40c0 95 -85 191 -150 261zM0 0c0 -177 193 -297 193 -474c0 -31 -7 -62 -19 -90c17 -35 29 -72 29 -113c0 -39 -11 -77 -29 -112c17 -35 29 -72 29 -113c0 -33 -14 -65 -35 -91c24 -41 41 -85 41 -134
c0 -61 -16 -121 -42 -176c-5 -8 -12 -11 -19 -11c-13 0 -26 11 -23 27c26 50 42 104 42 160c0 93 -95 180 -167 240v-113h-16v1000h16zM0 -438v-12c0 -114 88 -198 148 -292c8 21 12 42 12 65c0 92 -91 178 -160 239zM0 -662v-13c0 -110 83 -192 144 -281c10 16 16 35 16 54
c0 92 -91 179 -160 240z" fill="currentColor"/>
<a style="color:inherit;" xlink:href="textedit:///media/sf_Philomelos/PUMTS.git/partwise/elements/tremolo/tremolo_xml--musicxml2ly-2.19.15.ly:31:12:13">
<path transform="translate(105.8954, 13.2845) scale(0.0040, -0.0040)" d="M220 138c56 0 109 -29 109 -91c0 -72 -56 -121 -103 -149c-36 -21 -76 -36 -117 -36c-56 0 -109 29 -109 91c0 72 56 121 103 149c36 21 76 36 117 36z" fill="currentColor"/>
</a>
<rect transform="translate(107.1466, 10.7845)" x="-0.0650" y="-2.5000" width="0.1300" height="4.8122" ry="0.0400" fill="currentColor"/>
<path transform="translate(107.2116, 8.3245) scale(0.0040, -0.0040)" d="M0 -213v-12c0 -112 85 -197 145 -289c3 13 5 27 5 40c0 95 -85 191 -150 261zM0 0c0 -177 193 -297 193 -474c0 -31 -7 -62 -19 -90c17 -35 29 -72 29 -113c0 -39 -11 -77 -29 -112c17 -35 29 -72 29 -113c0 -33 -14 -65 -35 -91c24 -41 41 -85 41 -134
c0 -61 -16 -121 -42 -176c-5 -8 -12 -11 -19 -11c-13 0 -26 11 -23 27c26 50 42 104 42 160c0 93 -95 180 -167 240v-113h-16v1000h16zM0 -438v-12c0 -114 88 -198 148 -292c8 21 12 42 12 65c0 92 -91 178 -160 239zM0 -662v-13c0 -110 83 -192 144 -281c10 16 16 35 16 54
c0 92 -91 179 -160 240z" fill="currentColor"/>
<a style="color:inherit;" xlink:href="textedit:///media/sf_Philomelos/PUMTS.git/partwise/elements/tremolo/tremolo_xml--musicxml2ly-2.19.15.ly:31:21:22">
<path transform="translate(108.4826, 12.7845) scale(0.0040, -0.0040)" d="M220 138c56 0 109 -29 109 -91c0 -72 -56 -121 -103 -149c-36 -21 -76 -36 -117 -36c-56 0 -109 29 -109 91c0 72 56 121 103 149c36 21 76 36 117 36z" fill="currentColor"/>
</a>
<rect transform="translate(109.7338, 10.7845)" x="-0.0650" y="-3.0000" width="0.1300" height="4.8122" ry="0.0400" fill="currentColor"/>
<path transform="translate(109.7988, 7.8245) scale(0.0040, -0.0040)" d="M0 -213v-12c0 -112 85 -197 145 -289c3 13 5 27 5 40c0 95 -85 191 -150 261zM0 0c0 -177 193 -297 193 -474c0 -31 -7 -62 -19 -90c17 -35 29 -72 29 -113c0 -39 -11 -77 -29 -112c17 -35 29 -72 29 -113c0 -33 -14 -65 -35 -91c24 -41 41 -85 41 -134
c0 -61 -16 -121 -42 -176c-5 -8 -12 -11 -19 -11c-13 0 -26 11 -23 27c26 50 42 104 42 160c0 93 -95 180 -167 240v-113h-16v1000h16zM0 -438v-12c0 -114 88 -198 148 -292c8 21 12 42 12 65c0 92 -91 178 -160 239zM0 -662v-13c0 -110 83 -192 144 -281c10 16 16 35 16 54
c0 92 -91 179 -160 240z" fill="currentColor"/>
<a style="color:inherit;" xlink:href="textedit:///media/sf_Philomelos/PUMTS.git/partwise/elements/tremolo/tremolo_xml--musicxml2ly-2.19.15.ly:31:30:31">
<path transform="translate(111.0698, 12.2845) scale(0.0040, -0.0040)" d="M220 138c56 0 109 -29 109 -91c0 -72 -56 -121 -103 -149c-36 -21 -76 -36 -117 -36c-56 0 -109 29 -109 91c0 72 56 121 103 149c36 21 76 36 117 36z" fill="currentColor"/>
</a>
<rect transform="translate(112.3210, 10.7845)" x="-0.0650" y="-3.5000" width="0.1300" height="4.8122" ry="0.0400" fill="currentColor"/>
<path transform="translate(112.3860, 7.3245) scale(0.0040, -0.0040)" d="M0 -213v-12c0 -112 85 -197 145 -289c3 13 5 27 5 40c0 95 -85 191 -150 261zM0 0c0 -177 193 -297 193 -474c0 -31 -7 -62 -19 -90c17 -35 29 -72 29 -113c0 -39 -11 -77 -29 -112c17 -35 29 -72 29 -113c0 -33 -14 -65 -35 -91c24 -41 41 -85 41 -134
c0 -61 -16 -121 -42 -176c-5 -8 -12 -11 -19 -11c-13 0 -26 11 -23 27c26 50 42 104 42 160c0 93 -95 180 -167 240v-113h-16v1000h16zM0 -438v-12c0 -114 88 -198 148 -292c8 21 12 42 12 65c0 92 -91 178 -160 239zM0 -662v-13c0 -110 83 -192 144 -281c10 16 16 35 16 54
c0 92 -91 179 -160 240z" fill="currentColor"/>
<polygon transform="translate(97.0654, 9.7845)" stroke-linejoin="round" stroke-linecap="round" stroke-width="0.0800" fill="currentColor" stroke="currentColor" points="5.7228 -2.0100 5.7228 -1.6100 0.0400 0.2000 0.0400 -0.2000"/>
<polygon transform="translate(97.0654, 10.5945)" stroke-linejoin="round" stroke-linecap="round" stroke-width="0.0800" fill="currentColor" stroke="currentColor" points="5.7228 -2.0100 5.7228 -1.6100 0.0400 0.2000 0.0400 -0.2000"/>
<polygon transform="translate(88.8507, 9.7845)" stroke-linejoin="round" stroke-linecap="round" stroke-width="0.0800" fill="currentColor" stroke="currentColor" points="6.4385 -2.2000 6.4385 -1.8000 0.0400 0.2000 0.0400 -0.2000"/>
<a style="color:inherit;" xlink:href="textedit:///media/sf_Philomelos/PUMTS.git/partwise/elements/tremolo/tremolo_xml--musicxml2ly-2.19.15.ly:26:27:28">
<path transform="translate(94.0131, 12.2845) scale(0.0040, -0.0040)" d="M220 138c56 0 109 -29 109 -91c0 -72 -56 -121 -103 -149c-36 -21 -76 -36 -117 -36c-56 0 -109 29 -109 91c0 72 56 121 103 149c36 21 76 36 117 36z" fill="currentColor"/>
</a>
<rect transform="translate(95.2642, 10.7845)" x="-0.0650" y="-2.9799" width="0.1300" height="4.2921" ry="0.0400" fill="currentColor"/>
<a style="color:inherit;" xlink:href="textedit:///media/sf_Philomelos/PUMTS.git/partwise/elements/tremolo/tremolo_xml--musicxml2ly-2.19.15.ly:26:31:32">
<polygon transform="translate(94.8637, 10.3607)" stroke-linejoin="round" stroke-linecap="round" stroke-width="0.0800" fill="currentColor" stroke="currentColor" points="-0.0982 -0.1787 0.7792 -0.4552 0.8994 -0.0737 0.0219 0.2028"/>
<polygon transform="translate(94.8637, 9.5507)" stroke-linejoin="round" stroke-linecap="round" stroke-width="0.0800" fill="currentColor" stroke="currentColor" points="-0.0982 -0.1787 0.7792 -0.4552 0.8994 -0.0737 0.0219 0.2028"/>
<polygon transform="translate(94.8637, 8.7407)" stroke-linejoin="round" stroke-linecap="round" stroke-width="0.0800" fill="currentColor" stroke="currentColor" points="-0.0982 -0.1787 0.7792 -0.4552 0.8994 -0.0737 0.0219 0.2028"/>
</a>
<a style="color:inherit;" xlink:href="textedit:///media/sf_Philomelos/PUMTS.git/partwise/elements/tremolo/tremolo_xml--musicxml2ly-2.19.15.ly:28:4:5">
<path transform="translate(95.8792, 13.7845) scale(0.0040, -0.0040)" d="M220 138c56 0 109 -29 109 -91c0 -72 -56 -121 -103 -149c-36 -21 -76 -36 -117 -36c-56 0 -109 29 -109 91c0 72 56 121 103 149c36 21 76 36 117 36z" fill="currentColor"/>
</a>
<rect transform="translate(97.1304, 10.7845)" x="-0.0650" y="-1.0204" width="0.1300" height="3.8326" ry="0.0400" fill="currentColor"/>
<a style="color:inherit;" xlink:href="textedit:///media/sf_Philomelos/PUMTS.git/partwise/elements/tremolo/tremolo_xml--musicxml2ly-2.19.15.ly:28:12:13">
<path transform="translate(97.6954, 13.2845) scale(0.0040, -0.0040)" d="M220 138c56 0 109 -29 109 -91c0 -72 -56 -121 -103 -149c-36 -21 -76 -36 -117 -36c-56 0 -109 29 -109 91c0 72 56 121 103 149c36 21 76 36 117 36z" fill="currentColor"/>
</a>
<rect transform="translate(98.9466, 10.7845)" x="-0.0650" y="-1.5908" width="0.1300" height="3.9030" ry="0.0400" fill="currentColor"/>
<a style="color:inherit;" xlink:href="textedit:///media/sf_Philomelos/PUMTS.git/partwise/elements/tremolo/tremolo_xml--musicxml2ly-2.19.15.ly:28:21:22">
<path transform="translate(99.5116, 12.7845) scale(0.0040, -0.0040)" d="M220 138c56 0 109 -29 109 -91c0 -72 -56 -121 -103 -149c-36 -21 -76 -36 -117 -36c-56 0 -109 29 -109 91c0 72 56 121 103 149c36 21 76 36 117 36z" fill="currentColor"/>
</a>
<rect transform="translate(100.7628, 10.7845)" x="-0.0650" y="-2.1613" width="0.1300" height="3.9735" ry="0.0400" fill="currentColor"/>
<a style="color:inherit;" xlink:href="textedit:///media/sf_Philomelos/PUMTS.git/partwise/elements/tremolo/tremolo_xml--musicxml2ly-2.19.15.ly:28:26:27">
<polygon transform="translate(100.3629, 10.3717)" stroke-linejoin="round" stroke-linecap="round" stroke-width="0.0800" fill="currentColor" stroke="currentColor" points="-0.0993 -0.1782 0.7766 -0.4596 0.8990 -0.0788 0.0231 0.2026"/>
</a>
<a style="color:inherit;" xlink:href="textedit:///media/sf_Philomelos/PUMTS.git/partwise/elements/tremolo/tremolo_xml--musicxml2ly-2.19.15.ly:28:30:31">
<path transform="translate(101.5121, 12.2845) scale(0.0040, -0.0040)" d="M220 138c56 0 109 -29 109 -91c0 -72 -56 -121 -103 -149c-36 -21 -76 -36 -117 -36c-56 0 -109 29 -109 91c0 72 56 121 103 149c36 21 76 36 117 36z" fill="currentColor"/>
</a>
<rect transform="translate(102.7632, 10.7845)" x="-0.0650" y="-2.7896" width="0.1300" height="4.1018" ry="0.0400" fill="currentColor"/>
<a style="color:inherit;" xlink:href="textedit:///media/sf_Philomelos/PUMTS.git/partwise/elements/tremolo/tremolo_xml--musicxml2ly-2.19.15.ly:14:4:5">
<path transform="translate(39.1672, 12.7845) scale(0.0040, -0.0040)" d="M215 112c-50 0 -69 -43 -69 -88c0 -77 57 -136 134 -136c50 0 69 43 69 88c0 77 -57 136 -134 136zM495 0c0 -43 -35 -76 -73 -97c-53 -30 -113 -41 -174 -41s-122 11 -175 41c-38 21 -73 54 -73 97s35 76 73 97c53 30 114 41 175 41s121 -11 174 -41
c38 -21 73 -54 73 -97z" fill="currentColor"/>
</a>
<a style="color:inherit;" xlink:href="textedit:///media/sf_Philomelos/PUMTS.git/partwise/elements/tremolo/tremolo_xml--musicxml2ly-2.19.15.ly:14:8:9">
<polygon transform="translate(39.4072, 9.8520)" stroke-linejoin="round" stroke-linecap="round" stroke-width="0.0800" fill="currentColor" stroke="currentColor" points="1.4600 -0.5750 1.4600 -0.1750 0.0400 0.2000 0.0400 -0.2000"/>
<polygon transform="translate(39.4072, 10.6620)" stroke-linejoin="round" stroke-linecap="round" stroke-width="0.0800" fill="currentColor" stroke="currentColor" points="1.4600 -0.5750 1.4600 -0.1750 0.0400 0.2000 0.0400 -0.2000"/>
<polygon transform="translate(39.4072, 11.4720)" stroke-linejoin="round" stroke-linecap="round" stroke-width="0.0800" fill="currentColor" stroke="currentColor" points="1.4600 -0.5750 1.4600 -0.1750 0.0400 0.2000 0.0400 -0.2000"/>
</a>
<a style="color:inherit;" xlink:href="textedit:///media/sf_Philomelos/PUMTS.git/partwise/elements/tremolo/tremolo_xml--musicxml2ly-2.19.15.ly:15:4:5">
<path transform="translate(47.3353, 12.2845) scale(0.0040, -0.0040)" d="M215 112c-50 0 -69 -43 -69 -88c0 -77 57 -136 134 -136c50 0 69 43 69 88c0 77 -57 136 -134 136zM495 0c0 -43 -35 -76 -73 -97c-53 -30 -113 -41 -174 -41s-122 11 -175 41c-38 21 -73 54 -73 97s35 76 73 97c53 30 114 41 175 41s121 -11 174 -41
c38 -21 73 -54 73 -97z" fill="currentColor"/>
</a>
<a style="color:inherit;" xlink:href="textedit:///media/sf_Philomelos/PUMTS.git/partwise/elements/tremolo/tremolo_xml--musicxml2ly-2.19.15.ly:15:8:9">
<polygon transform="translate(47.5753, 8.5420)" stroke-linejoin="round" stroke-linecap="round" stroke-width="0.0800" fill="currentColor" stroke="currentColor" points="1.4600 -0.5750 1.4600 -0.1750 0.0400 0.2000 0.0400 -0.2000"/>
<polygon transform="translate(47.5753, 9.3520)" stroke-linejoin="round" stroke-linecap="round" stroke-width="0.0800" fill="currentColor" stroke="currentColor" points="1.4600 -0.5750 1.4600 -0.1750 0.0400 0.2000 0.0400 -0.2000"/>
<polygon transform="translate(47.5753, 10.1620)" stroke-linejoin="round" stroke-linecap="round" stroke-width="0.0800" fill="currentColor" stroke="currentColor" points="1.4600 -0.5750 1.4600 -0.1750 0.0400 0.2000 0.0400 -0.2000"/>
<polygon transform="translate(47.5753, 10.9720)" stroke-linejoin="round" stroke-linecap="round" stroke-width="0.0800" fill="currentColor" stroke="currentColor" points="1.4600 -0.5750 1.4600 -0.1750 0.0400 0.2000 0.0400 -0.2000"/>
</a>
<a style="color:inherit;" xlink:href="textedit:///media/sf_Philomelos/PUMTS.git/partwise/elements/tremolo/tremolo_xml--musicxml2ly-2.19.15.ly:12:4:5">
<path transform="translate(22.8311, 13.7845) scale(0.0040, -0.0040)" d="M215 112c-50 0 -69 -43 -69 -88c0 -77 57 -136 134 -136c50 0 69 43 69 88c0 77 -57 136 -134 136zM495 0c0 -43 -35 -76 -73 -97c-53 -30 -113 -41 -174 -41s-122 11 -175 41c-38 21 -73 54 -73 97s35 76 73 97c53 30 114 41 175 41s121 -11 174 -41
c38 -21 73 -54 73 -97z" fill="currentColor"/>
</a>
<path transform="translate(15.0264, 11.7845) scale(0.0040, -0.0040)" d="M376 262c4 0 9 1 13 1c155 0 256 -128 256 -261c0 -76 -33 -154 -107 -210c-22 -17 -47 -28 -73 -36c3 -35 5 -70 5 -105c0 -19 -1 -39 -2 -58c-7 -120 -90 -228 -208 -228c-108 0 -195 88 -195 197c0 58 53 103 112 103c54 0 95 -47 95 -103c0 -52 -43 -95 -95 -95
c-11 0 -21 2 -31 6c26 -39 68 -65 117 -65c96 0 157 92 163 191c1 18 2 37 2 55c0 31 -1 61 -4 92c-29 -5 -58 -8 -89 -8c-188 0 -333 172 -333 374c0 177 131 306 248 441c-19 62 -37 125 -45 190c-6 52 -7 104 -7 156c0 115 55 224 149 292c3 2 7 3 10 3c4 0 7 0 10 -3
c71 -84 133 -245 133 -358c0 -143 -86 -255 -180 -364c21 -68 39 -138 56 -207zM461 -203c68 24 113 95 113 164c0 90 -66 179 -173 190c24 -116 46 -231 60 -354zM74 28c0 -135 129 -247 264 -247c28 0 55 2 82 6c-14 127 -37 245 -63 364c-79 -8 -124 -61 -124 -119
c0 -44 25 -91 81 -123c5 -5 7 -10 7 -15c0 -11 -10 -22 -22 -22c-3 0 -6 1 -9 2c-80 43 -117 115 -117 185c0 88 58 174 160 197c-14 58 -29 117 -46 175c-107 -121 -213 -243 -213 -403zM408 1045c-99 -48 -162 -149 -162 -259c0 -74 18 -133 36 -194
c80 97 146 198 146 324c0 55 -4 79 -20 129z" fill="currentColor"/>
<a style="color:inherit;" xlink:href="textedit:///media/sf_Philomelos/PUMTS.git/partwise/elements/tremolo/tremolo_xml--musicxml2ly-2.19.15.ly:11:19:20">
</a>
<path transform="translate(19.2264, 12.7989) scale(0.0040, -0.0040)" d="M204 307c22 14 44 29 60 50c11 15 19 33 27 50c2 4 5 6 9 6c6 0 13 -5 13 -14v-245h72c10 0 15 -7 15 -14s-5 -15 -15 -15h-72v-8c0 -48 27 -94 72 -94c8 0 12 -5 12 -11s-4 -12 -12 -12c-44 0 -87 13 -131 13s-87 -13 -131 -13c-8 0 -12 6 -12 12s4 11 12 11
c45 0 73 46 73 94v8h-167c-23 0 -31 14 -31 23c0 3 1 5 2 6c80 93 138 207 138 330c0 9 6 16 13 16h3c23 -7 47 -13 71 -13s48 6 71 13c2 1 3 1 5 1c11 0 18 -10 12 -17l-284 -330h167v131c0 8 1 17 8 22z" fill="currentColor"/>
<path transform="translate(19.2264, 10.7845) scale(0.0040, -0.0040)" d="M204 307c22 14 44 29 60 50c11 15 19 33 27 50c2 4 5 6 9 6c6 0 13 -5 13 -14v-245h72c10 0 15 -7 15 -14s-5 -15 -15 -15h-72v-8c0 -48 27 -94 72 -94c8 0 12 -5 12 -11s-4 -12 -12 -12c-44 0 -87 13 -131 13s-87 -13 -131 -13c-8 0 -12 6 -12 12s4 11 12 11
c45 0 73 46 73 94v8h-167c-23 0 -31 14 -31 23c0 3 1 5 2 6c80 93 138 207 138 330c0 9 6 16 13 16h3c23 -7 47 -13 71 -13s48 6 71 13c2 1 3 1 5 1c11 0 18 -10 12 -17l-284 -330h167v131c0 8 1 17 8 22z" fill="currentColor"/>
<a style="color:inherit;" xlink:href="textedit:///media/sf_Philomelos/PUMTS.git/partwise/elements/tremolo/tremolo_xml--musicxml2ly-2.19.15.ly:12:8:9">
<polygon transform="translate(23.0711, 12.4720)" stroke-linejoin="round" stroke-linecap="round" stroke-width="0.0800" fill="currentColor" stroke="currentColor" points="1.4600 -0.5750 1.4600 -0.1750 0.0400 0.2000 0.0400 -0.2000"/>
</a>
<a style="color:inherit;" xlink:href="textedit:///media/sf_Philomelos/PUMTS.git/partwise/elements/tremolo/tremolo_xml--musicxml2ly-2.19.15.ly:13:4:5">
<path transform="translate(30.9992, 13.2845) scale(0.0040, -0.0040)" d="M215 112c-50 0 -69 -43 -69 -88c0 -77 57 -136 134 -136c50 0 69 43 69 88c0 77 -57 136 -134 136zM495 0c0 -43 -35 -76 -73 -97c-53 -30 -113 -41 -174 -41s-122 11 -175 41c-38 21 -73 54 -73 97s35 76 73 97c53 30 114 41 175 41s121 -11 174 -41
c38 -21 73 -54 73 -97z" fill="currentColor"/>
</a>
<a style="color:inherit;" xlink:href="textedit:///media/sf_Philomelos/PUMTS.git/partwise/elements/tremolo/tremolo_xml--musicxml2ly-2.19.15.ly:13:8:9">
<polygon transform="translate(31.2392, 11.1620)" stroke-linejoin="round" stroke-linecap="round" stroke-width="0.0800" fill="currentColor" stroke="currentColor" points="1.4600 -0.5750 1.4600 -0.1750 0.0400 0.2000 0.0400 -0.2000"/>
<polygon transform="translate(31.2392, 11.9720)" stroke-linejoin="round" stroke-linecap="round" stroke-width="0.0800" fill="currentColor" stroke="currentColor" points="1.4600 -0.5750 1.4600 -0.1750 0.0400 0.2000 0.0400 -0.2000"/>
</a>
<rect transform="translate(60.1163, 10.7845)" x="-0.0650" y="-1.0000" width="0.1300" height="3.2386" ry="0.0400" fill="currentColor"/>
<a style="color:inherit;" xlink:href="textedit:///media/sf_Philomelos/PUMTS.git/partwise/elements/tremolo/tremolo_xml--musicxml2ly-2.19.15.ly:20:15:16">
<polygon transform="translate(59.3663, 11.5920)" stroke-linejoin="round" stroke-linecap="round" stroke-width="0.0800" fill="currentColor" stroke="currentColor" points="1.4600 -0.5750 1.4600 -0.1750 0.0400 0.2000 0.0400 -0.2000"/>
<polygon transform="translate(59.3663, 10.7820)" stroke-linejoin="round" stroke-linecap="round" stroke-width="0.0800" fill="currentColor" stroke="currentColor" points="1.4600 -0.5750 1.4600 -0.1750 0.0400 0.2000 0.0400 -0.2000"/>
</a>
<a style="color:inherit;" xlink:href="textedit:///media/sf_Philomelos/PUMTS.git/partwise/elements/tremolo/tremolo_xml--musicxml2ly-2.19.15.ly:21:4:5">
<path transform="translate(64.3837, 12.7845) scale(0.0040, -0.0040)" d="M315 65c0 24 -21 41 -42 41c-4 0 -8 0 -12 -1c-31 -9 -77 -40 -114 -64s-84 -53 -104 -78c-7 -8 -11 -18 -11 -28c0 -24 21 -41 42 -41c4 0 8 0 12 1c31 9 78 40 115 64s84 53 104 78c7 8 10 18 10 28zM264 137c47 0 83 -21 83 -72c0 -19 -4 -37 -10 -56
c-12 -38 -32 -74 -65 -96c-54 -36 -113 -51 -188 -51c-47 0 -84 22 -84 73c0 19 5 37 11 56c12 38 31 74 64 96c54 36 114 50 189 50z" fill="currentColor"/>
</a>
<rect transform="translate(65.7087, 10.7845)" x="-0.0650" y="-1.6250" width="0.1300" height="3.3636" ry="0.0400" fill="currentColor"/>
<a style="color:inherit;" xlink:href="textedit:///media/sf_Philomelos/PUMTS.git/partwise/elements/tremolo/tremolo_xml--musicxml2ly-2.19.15.ly:21:8:9">
<polygon transform="translate(64.9587, 11.7770)" stroke-linejoin="round" stroke-linecap="round" stroke-width="0.0800" fill="currentColor" stroke="currentColor" points="1.4600 -0.5750 1.4600 -0.1750 0.0400 0.2000 0.0400 -0.2000"/>
<polygon transform="translate(64.9587, 10.9670)" stroke-linejoin="round" stroke-linecap="round" stroke-width="0.0800" fill="currentColor" stroke="currentColor" points="1.4600 -0.5750 1.4600 -0.1750 0.0400 0.2000 0.0400 -0.2000"/>
<polygon transform="translate(64.9587, 10.1570)" stroke-linejoin="round" stroke-linecap="round" stroke-width="0.0800" fill="currentColor" stroke="currentColor" points="1.4600 -0.5750 1.4600 -0.1750 0.0400 0.2000 0.0400 -0.2000"/>
</a>
<a style="color:inherit;" xlink:href="textedit:///media/sf_Philomelos/PUMTS.git/partwise/elements/tremolo/tremolo_xml--musicxml2ly-2.19.15.ly:21:12:13">
<path transform="translate(68.6717, 12.2845) scale(0.0040, -0.0040)" d="M315 65c0 24 -21 41 -42 41c-4 0 -8 0 -12 -1c-31 -9 -77 -40 -114 -64s-84 -53 -104 -78c-7 -8 -11 -18 -11 -28c0 -24 21 -41 42 -41c4 0 8 0 12 1c31 9 78 40 115 64s84 53 104 78c7 8 10 18 10 28zM264 137c47 0 83 -21 83 -72c0 -19 -4 -37 -10 -56
c-12 -38 -32 -74 -65 -96c-54 -36 -113 -51 -188 -51c-47 0 -84 22 -84 73c0 19 5 37 11 56c12 38 31 74 64 96c54 36 114 50 189 50z" fill="currentColor"/>
</a>
<rect transform="translate(69.9967, 10.7845)" x="-0.0650" y="-2.9350" width="0.1300" height="4.1736" ry="0.0400" fill="currentColor"/>
<a style="color:inherit;" xlink:href="textedit:///media/sf_Philomelos/PUMTS.git/partwise/elements/tremolo/tremolo_xml--musicxml2ly-2.19.15.ly:21:16:17">
<polygon transform="translate(69.2467, 11.2770)" stroke-linejoin="round" stroke-linecap="round" stroke-width="0.0800" fill="currentColor" stroke="currentColor" points="1.4600 -0.5750 1.4600 -0.1750 0.0400 0.2000 0.0400 -0.2000"/>
<polygon transform="translate(69.2467, 10.4670)" stroke-linejoin="round" stroke-linecap="round" stroke-width="0.0800" fill="currentColor" stroke="currentColor" points="1.4600 -0.5750 1.4600 -0.1750 0.0400 0.2000 0.0400 -0.2000"/>
<polygon transform="translate(69.2467, 9.6570)" stroke-linejoin="round" stroke-linecap="round" stroke-width="0.0800" fill="currentColor" stroke="currentColor" points="1.4600 -0.5750 1.4600 -0.1750 0.0400 0.2000 0.0400 -0.2000"/>
<polygon transform="translate(69.2467, 8.8470)" stroke-linejoin="round" stroke-linecap="round" stroke-width="0.0800" fill="currentColor" stroke="currentColor" points="1.4600 -0.5750 1.4600 -0.1750 0.0400 0.2000 0.0400 -0.2000"/>
</a>
<a style="color:inherit;" xlink:href="textedit:///media/sf_Philomelos/PUMTS.git/partwise/elements/tremolo/tremolo_xml--musicxml2ly-2.19.15.ly:24:4:5">
<path transform="translate(74.2811, 13.7845) scale(0.0040, -0.0040)" d="M220 138c56 0 109 -29 109 -91c0 -72 -56 -121 -103 -149c-36 -21 -76 -36 -117 -36c-56 0 -109 29 -109 91c0 72 56 121 103 149c36 21 76 36 117 36z" fill="currentColor"/>
</a>
<a style="color:inherit;" xlink:href="textedit:///media/sf_Philomelos/PUMTS.git/partwise/elements/tremolo/tremolo_xml--musicxml2ly-2.19.15.ly:20:4:5">
<path transform="translate(54.5033, 13.7845) scale(0.0040, -0.0040)" d="M315 65c0 24 -21 41 -42 41c-4 0 -8 0 -12 -1c-31 -9 -77 -40 -114 -64s-84 -53 -104 -78c-7 -8 -11 -18 -11 -28c0 -24 21 -41 42 -41c4 0 8 0 12 1c31 9 78 40 115 64s84 53 104 78c7 8 10 18 10 28zM264 137c47 0 83 -21 83 -72c0 -19 -4 -37 -10 -56
c-12 -38 -32 -74 -65 -96c-54 -36 -113 -51 -188 -51c-47 0 -84 22 -84 73c0 19 5 37 11 56c12 38 31 74 64 96c54 36 114 50 189 50z" fill="currentColor"/>
</a>
<rect transform="translate(55.8283, 10.7845)" x="-0.0650" y="-0.5000" width="0.1300" height="3.2386" ry="0.0400" fill="currentColor"/>
<a style="color:inherit;" xlink:href="textedit:///media/sf_Philomelos/PUMTS.git/partwise/elements/tremolo/tremolo_xml--musicxml2ly-2.19.15.ly:20:8:9">
<polygon transform="translate(55.0783, 11.2820)" stroke-linejoin="round" stroke-linecap="round" stroke-width="0.0800" fill="currentColor" stroke="currentColor" points="1.4600 -0.5750 1.4600 -0.1750 0.0400 0.2000 0.0400 -0.2000"/>
</a>
<a style="color:inherit;" xlink:href="textedit:///media/sf_Philomelos/PUMTS.git/partwise/elements/tremolo/tremolo_xml--musicxml2ly-2.19.15.ly:20:11:12">
<path transform="translate(58.7914, 13.2845) scale(0.0040, -0.0040)" d="M315 65c0 24 -21 41 -42 41c-4 0 -8 0 -12 -1c-31 -9 -77 -40 -114 -64s-84 -53 -104 -78c-7 -8 -11 -18 -11 -28c0 -24 21 -41 42 -41c4 0 8 0 12 1c31 9 78 40 115 64s84 53 104 78c7 8 10 18 10 28zM264 137c47 0 83 -21 83 -72c0 -19 -4 -37 -10 -56
c-12 -38 -32 -74 -65 -96c-54 -36 -113 -51 -188 -51c-47 0 -84 22 -84 73c0 19 5 37 11 56c12 38 31 74 64 96c54 36 114 50 189 50z" fill="currentColor"/>
</a>
<a transform="translate(31.0704, 165.1512)" xlink:href="http://lilypond.org/">
<rect x="0.0000" y="-0.4439" width="57.3608" height="2.0827" fill="none" stroke="none" stroke-width="0.0"/>
</a>
<text transform="translate(31.0704, 165.1512)" font-family="Century Schoolbook L" font-size="2.2001" text-anchor="start" fill="currentColor">
<tspan>
Music engraving by LilyPond 2.19.15—www.lilypond.org</tspan>
</text>
</svg>
